<svg width="108" height="84" viewBox="0 0 108 84" fill="none" xmlns="http://www.w3.org/2000/svg">
<path fill-rule="evenodd" clip-rule="evenodd" d="M29.6128 58.3841V49.5161H45.2358C45.5616 49.5161 45.881 49.5382 46.2007 49.5604C46.238 49.563 46.2752 49.5655 46.3125 49.5681L44.0545 53.9501H34.0765V58.3841C34.0765 64.4964 39.0826 69.4692 45.2358 69.4692H46.3517H56.3951V65.0352C56.3951 60.1888 53.2282 56.1049 48.8582 54.604L46.3909 49.5724C54.4658 50.1643 60.8588 56.8677 60.8588 65.0352V69.4692C60.8588 71.9146 58.8568 73.9032 56.3951 73.9032H45.2358C36.623 73.9032 29.6128 66.9396 29.6128 58.3841ZM84.254 49.5724C84.2607 49.5613 84.2932 49.5161 84.2932 49.5161L84.3325 49.5681C84.3697 49.5655 84.407 49.563 84.4442 49.5604C84.7639 49.5382 85.0833 49.5161 85.4092 49.5161H101.032V58.3841C101.032 66.9396 94.0219 73.9032 85.4092 73.9032H74.2499C71.7882 73.9032 69.7862 71.9146 69.7862 69.4692V65.0352C69.7862 56.8677 76.1792 50.1643 84.254 49.5724ZM96.5684 53.9501H86.5905C87.1752 55.5353 87.641 57.4419 87.641 59.4927C87.641 65.0019 84.2932 69.4692 84.2932 69.4692C84.2932 69.4692 80.9455 65.0019 80.9455 59.4927C80.9455 57.7057 81.3114 56.0539 81.7868 54.604C77.4168 56.1049 74.2499 60.1888 74.2499 65.0352V69.4692H84.2932H85.4092C91.5624 69.4692 96.5684 64.4964 96.5684 58.3841V53.9501Z" fill="#C5E1E6"/>
<path d="M46.3909 49.5724C46.3842 49.5613 46.3517 49.5161 46.3517 49.5161L46.3125 49.5681L44.0545 53.9501C43.4697 55.5353 43.0039 57.4419 43.0039 59.4927C43.0039 65.0019 46.3517 69.4692 46.3517 69.4692C46.3517 69.4692 49.6995 65.0019 49.6995 59.4927C49.6995 57.7057 49.3336 56.0539 48.8582 54.604L46.3909 49.5724Z" fill="#C5E1E6"/>
<path d="M10.3123 32.3484C8.45419 32.3484 6.88645 32.0232 5.60903 31.3729C4.35484 30.7226 3.39097 29.8052 2.71742 28.6206C2.0671 27.4361 1.69548 26.0542 1.60258 24.4748C1.57935 24.0568 1.56774 23.5458 1.56774 22.9419C1.56774 22.3381 1.57935 21.8271 1.60258 21.409C1.69548 19.8065 2.07871 18.4245 2.75226 17.2632C3.44903 16.0787 4.42452 15.1613 5.67871 14.511C6.95613 13.8606 8.50065 13.5355 10.3123 13.5355C12.1239 13.5355 13.6568 13.8606 14.911 14.511C16.1884 15.1613 17.1639 16.0787 17.8374 17.2632C18.5342 18.4245 18.929 19.8065 19.0219 21.409C19.0452 21.8271 19.0568 22.3381 19.0568 22.9419C19.0568 23.5458 19.0452 24.0568 19.0219 24.4748C18.929 26.0542 18.5458 27.4361 17.8723 28.6206C17.2219 29.8052 16.2581 30.7226 14.9806 31.3729C13.7265 32.0232 12.1703 32.3484 10.3123 32.3484ZM10.3123 28.8994C11.5432 28.8994 12.4955 28.5161 13.169 27.7497C13.8426 26.96 14.2142 25.8103 14.2839 24.3006C14.3071 23.9523 14.3187 23.4994 14.3187 22.9419C14.3187 22.3845 14.3071 21.9316 14.2839 21.5832C14.2142 20.0968 13.8426 18.9587 13.169 18.169C12.4955 17.3794 11.5432 16.9845 10.3123 16.9845C9.08129 16.9845 8.12903 17.3794 7.45548 18.169C6.78194 18.9587 6.41032 20.0968 6.34065 21.5832C6.31742 21.9316 6.30581 22.3845 6.30581 22.9419C6.30581 23.4994 6.31742 23.9523 6.34065 24.3006C6.41032 25.8103 6.78194 26.96 7.45548 27.7497C8.12903 28.5161 9.08129 28.8994 10.3123 28.8994ZM23.7529 32C23.5207 32 23.3232 31.9187 23.1607 31.7561C22.9981 31.5935 22.9168 31.3961 22.9168 31.1639V14.72C22.9168 14.4877 22.9981 14.2903 23.1607 14.1277C23.3232 13.9652 23.5207 13.8839 23.7529 13.8839H26.6097C26.842 13.8839 27.0394 13.9652 27.202 14.1277C27.3645 14.2903 27.4458 14.4877 27.4458 14.72V16.1484C28.0497 15.4052 28.8161 14.7897 29.7452 14.3019C30.6974 13.791 31.8703 13.5355 33.2639 13.5355C34.6807 13.5355 35.9116 13.8606 36.9568 14.511C38.002 15.1381 38.8032 16.0323 39.3607 17.1935C39.9413 18.3548 40.2316 19.7484 40.2316 21.3742V31.1639C40.2316 31.3961 40.1503 31.5935 39.9878 31.7561C39.8252 31.9187 39.6278 32 39.3955 32H36.3297C36.0974 32 35.9 31.9187 35.7374 31.7561C35.5749 31.5935 35.4936 31.3961 35.4936 31.1639V21.5832C35.4936 20.2361 35.1568 19.1794 34.4832 18.4129C33.8329 17.6465 32.8807 17.2632 31.6265 17.2632C30.4187 17.2632 29.4549 17.6465 28.7349 18.4129C28.0149 19.1794 27.6549 20.2361 27.6549 21.5832V31.1639C27.6549 31.3961 27.5736 31.5935 27.411 31.7561C27.2484 31.9187 27.051 32 26.8187 32H23.7529ZM45.5279 32C45.2957 32 45.0983 31.9187 44.9357 31.7561C44.7731 31.5935 44.6918 31.3961 44.6918 31.1639V8.10064C44.6918 7.86838 44.7731 7.67097 44.9357 7.50839C45.0983 7.3458 45.2957 7.26451 45.5279 7.26451H48.4195C48.6518 7.26451 48.8492 7.3458 49.0118 7.50839C49.1744 7.67097 49.2557 7.86838 49.2557 8.10064V31.1639C49.2557 31.3961 49.1744 31.5935 49.0118 31.7561C48.8492 31.9187 48.6518 32 48.4195 32H45.5279ZM55.4616 32C55.2293 32 55.0319 31.9187 54.8693 31.7561C54.7068 31.5935 54.6255 31.3961 54.6255 31.1639V14.72C54.6255 14.4877 54.7068 14.2903 54.8693 14.1277C55.0319 13.9652 55.2293 13.8839 55.4616 13.8839H58.3532C58.6087 13.8839 58.8061 13.9652 58.9455 14.1277C59.108 14.2903 59.1893 14.4877 59.1893 14.72V31.1639C59.1893 31.3961 59.108 31.5935 58.9455 31.7561C58.8061 31.9187 58.6087 32 58.3532 32H55.4616ZM55.3222 10.8877C55.0668 10.8877 54.8577 10.8181 54.6951 10.6787C54.5558 10.5161 54.4861 10.3071 54.4861 10.0516V7.54322C54.4861 7.31097 54.5558 7.11355 54.6951 6.95097C54.8577 6.78839 55.0668 6.7071 55.3222 6.7071H58.4926C58.748 6.7071 58.9571 6.78839 59.1197 6.95097C59.2822 7.11355 59.3635 7.31097 59.3635 7.54322V10.0516C59.3635 10.3071 59.2822 10.5161 59.1197 10.6787C58.9571 10.8181 58.748 10.8877 58.4926 10.8877H55.3222ZM65.362 32C65.1298 32 64.9324 31.9187 64.7698 31.7561C64.6072 31.5935 64.5259 31.3961 64.5259 31.1639V14.72C64.5259 14.4877 64.6072 14.2903 64.7698 14.1277C64.9324 13.9652 65.1298 13.8839 65.362 13.8839H68.2188C68.4511 13.8839 68.6485 13.9652 68.8111 14.1277C68.9737 14.2903 69.055 14.4877 69.055 14.72V16.1484C69.6588 15.4052 70.4253 14.7897 71.3543 14.3019C72.3066 13.791 73.4795 13.5355 74.873 13.5355C76.2898 13.5355 77.5208 13.8606 78.5659 14.511C79.6111 15.1381 80.4124 16.0323 80.9698 17.1935C81.5504 18.3548 81.8408 19.7484 81.8408 21.3742V31.1639C81.8408 31.3961 81.7595 31.5935 81.5969 31.7561C81.4343 31.9187 81.2369 32 81.0046 32H77.9388C77.7066 32 77.5091 31.9187 77.3466 31.7561C77.184 31.5935 77.1027 31.3961 77.1027 31.1639V21.5832C77.1027 20.2361 76.7659 19.1794 76.0924 18.4129C75.442 17.6465 74.4898 17.2632 73.2356 17.2632C72.0279 17.2632 71.064 17.6465 70.344 18.4129C69.624 19.1794 69.264 20.2361 69.264 21.5832V31.1639C69.264 31.3961 69.1827 31.5935 69.0201 31.7561C68.8575 31.9187 68.6601 32 68.4279 32H65.362ZM94.07 32.3484C91.4919 32.3484 89.448 31.6052 87.9383 30.1187C86.4287 28.6323 85.6158 26.5187 85.4996 23.7781C85.4764 23.5458 85.4648 23.2555 85.4648 22.9071C85.4648 22.5355 85.4764 22.2452 85.4996 22.0361C85.5925 20.2942 85.9874 18.7845 86.6842 17.5071C87.4042 16.2297 88.3913 15.2542 89.6454 14.5806C90.8996 13.8839 92.3745 13.5355 94.07 13.5355C95.9513 13.5355 97.5306 13.9303 98.808 14.72C100.085 15.4865 101.049 16.5665 101.7 17.96C102.35 19.3303 102.675 20.9213 102.675 22.7329V23.4645C102.675 23.6968 102.594 23.8942 102.431 24.0568C102.269 24.2194 102.06 24.3006 101.804 24.3006H90.2377C90.2377 24.3006 90.2377 24.3355 90.2377 24.4052C90.2377 24.4748 90.2377 24.5329 90.2377 24.5794C90.2609 25.3923 90.4119 26.1471 90.6906 26.8439C90.9925 27.5174 91.4222 28.0632 91.9796 28.4813C92.5603 28.8994 93.2454 29.1084 94.0351 29.1084C94.6854 29.1084 95.2313 29.0155 95.6725 28.8297C96.1138 28.6206 96.4738 28.3884 96.7525 28.1329C97.0313 27.8774 97.2287 27.6684 97.3448 27.5058C97.5538 27.2271 97.7164 27.0645 97.8325 27.0181C97.9719 26.9484 98.1693 26.9135 98.4248 26.9135H101.421C101.653 26.9135 101.839 26.9832 101.978 27.1226C102.141 27.2619 102.211 27.4361 102.187 27.6452C102.164 28.0168 101.967 28.4697 101.595 29.0039C101.247 29.5381 100.736 30.0606 100.062 30.5716C99.3887 31.0826 98.5409 31.5123 97.519 31.8606C96.5203 32.1858 95.3706 32.3484 94.07 32.3484ZM90.2377 21.3742H97.9371V21.2697C97.9371 20.3639 97.7861 19.5742 97.4842 18.9006C97.1822 18.2271 96.7409 17.6929 96.1603 17.2981C95.5796 16.9032 94.8829 16.7058 94.07 16.7058C93.2571 16.7058 92.5603 16.9032 91.9796 17.2981C91.399 17.6929 90.9577 18.2271 90.6558 18.9006C90.3771 19.5742 90.2377 20.3639 90.2377 21.2697V21.3742Z" fill="#0D444D"/>
<path d="M2.19484 73.8064C1.96258 73.8064 1.76516 73.7252 1.60258 73.5626C1.44 73.4 1.35871 73.191 1.35871 72.9355V70.4968C1.35871 70.1484 1.42839 69.8697 1.56774 69.6606C1.7071 69.4516 1.81161 69.3006 1.88129 69.2077L14.0052 53.5303H2.54323C2.28774 53.5303 2.07871 53.449 1.91613 53.2864C1.77677 53.1239 1.7071 52.9264 1.7071 52.6942V50.2903C1.7071 50.0348 1.77677 49.8258 1.91613 49.6632C2.07871 49.5006 2.28774 49.4194 2.54323 49.4194H19.1961C19.4516 49.4194 19.6606 49.5006 19.8232 49.6632C19.9858 49.8258 20.0671 50.0348 20.0671 50.2903V52.6942C20.0671 52.9729 20.0206 53.2052 19.9277 53.391C19.8348 53.5768 19.7303 53.751 19.6142 53.9135L7.73419 69.6606H19.5794C19.8348 69.6606 20.0439 69.7419 20.2065 69.9045C20.369 70.0671 20.4503 70.2761 20.4503 70.5316V72.9703C20.4503 73.2026 20.369 73.4 20.2065 73.5626C20.0439 73.7252 19.8348 73.8064 19.5794 73.8064H2.19484Z" fill="#0D444D"/>
</svg>
